# xmcd
#
# Track frame offsets:
#	150
#	11573
#	22157
#	32350
#	41518
#	54211
#	67209
#	80449
#	94620
#	104568
#	115213
#	127053
#	139702
#	159445
#	172224
#	188704
#	196661
#	210286
#	220402
#	235827
#	247047
#	258956
#
# Disc length: 3718 seconds
# Revision: 0
# Processed by: cddbd v1.5.2PL0 Copyright (c) Steve Scherf et al.
# Submitted via: dBpowerAMP V12.0
#
DISCID=320e8416
DTITLE=Noel Poley Everett - The Collection
DYEAR=2016
DGENRE=Country
TTITLE0=Tender Loving Smile
TTITLE1=Radium
TTITLE2=If It Happened To Me
TTITLE3=Them Sloppy Kisses
TTITLE4=Oh How I Wish You Were Here
TTITLE5=Traveling Home
TTITLE6=Tribute to The Don
TTITLE7=Geetar Man
TTITLE8=Taree By The Manning
TTITLE9=Lonely Man Blues
TTITLE10=Pretty Girls
TTITLE11=Pop or Rock or Something
TTITLE12=I Had a Little Talk With Me
TTITLE13=The Yowie
TTITLE14=Bye and Bye
TTITLE15=The Winton Festival
TTITLE16=The Truckies Dog
TTITLE17=Good Morning Morning
TTITLE18=Call Me Country
TTITLE19=You're Everything to Me
TTITLE20=Doories Dog
TTITLE21=King of The Eighteen Wheeler
EXTD=
EXTT0=
EXTT1=
EXTT2=
EXTT3=
EXTT4=
EXTT5=
EXTT6=
EXTT7=
EXTT8=
EXTT9=
EXTT10=
EXTT11=
EXTT12=
EXTT13=
EXTT14=
EXTT15=
EXTT16=
EXTT17=
EXTT18=
EXTT19=
EXTT20=
EXTT21=
PLAYORDER=
